<?xml version="1.0" encoding="UTF-8"?>
<svg id="Layer_1" data-name="Layer 1" xmlns="http://www.w3.org/2000/svg" viewBox="0 0 128.25 115.57">
  <defs>
    <style>
      .cls-1 {
        fill: #f3eec8;
        stroke-width: 0px;
      }
    </style>
  </defs>
  <path class="cls-1" d="M75.81,79.72c8.34,8.33,16.57,16.54,24.8,24.76,3.71,3.71,4.26,6.08,1.98,8.45-2.36,2.47-4.56,1.99-8.36-1.81-7.47-7.47-14.96-14.93-22.4-22.44-.82-.82-1.37-1.91-1.96-2.75-23.44,17.18-49.08,7.43-59.92-7.62C-2.2,61.48-.3,38.21,14.79,23.69c14.78-14.23,38.02-15.22,54.17-2.54,16.53,12.97,21.82,38.83,6.84,58.58ZM43.22,85.83c18.1,0,32.47-14.26,32.42-32.2-.04-17.71-14.3-32.03-31.92-32.06-18.44-.03-32.71,14.03-32.68,32.2.02,17.91,14.22,32.05,32.18,32.06Z"/>
  <path class="cls-1" d="M38.75,58.17c-4.56,0-8.5.03-12.43-.01-3.23-.03-5.07-1.68-5.1-4.42-.03-2.76,1.82-4.46,5.01-4.51,3.09-.05,6.19-.15,9.27.03,2.45.14,3.49-.54,3.3-3.17-.22-3.08-.11-6.18-.03-9.27.09-3.33,2.02-5.49,4.66-5.39,2.57.09,4.29,2.09,4.36,5.34.09,4.02.02,8.05.02,12.45,4.35,0,8.26-.02,12.17,0,3.48.02,5.42,1.62,5.46,4.42.03,2.81-1.93,4.49-5.36,4.52-3.93.03-7.85,0-12.29,0,0,4.53.04,8.77-.01,13-.03,2.59-1.41,4.33-3.94,4.68-2.21.3-3.98-.77-4.68-3-.34-1.09-.38-2.3-.39-3.46-.05-3.59-.02-7.19-.02-11.22Z"/>
</svg>