<?xml version="1.0" encoding="UTF-8"?>
<svg id="Layer_1" data-name="Layer 1" xmlns="http://www.w3.org/2000/svg" viewBox="0 0 128.25 115.57">
  <defs>
    <style>
      .cls-1 {
        fill: #f3eec8;
        stroke-width: 0px;
      }
    </style>
  </defs>
  <path class="cls-1" d="M99.18,69.42v-26.18c-1.14.23-2.21.36-3.24.67-17.38,5.22-34.74,10.5-52.14,15.65-2.21.66-3.02,1.61-2.99,4,.14,10.57-.25,21.16.14,31.72.48,12.94-9.93,19.75-21.33,19.27-3.7-.16-7.69-1.43-10.93-3.27-10.95-6.22-10.92-20.59-.11-27.04,5.93-3.54,12.34-4.35,19.01-2.27.96.3,1.91.61,3.36,1.07.09-1.54.23-2.83.23-4.12.02-15.58.06-31.15-.04-46.73-.01-2.19.65-3.2,2.75-3.82,24.24-7.19,48.46-14.46,72.69-21.7.64-.19,1.32-.26,2.52-.49v3.72c0,23.99-.26,47.98.1,71.96.2,13.37-11.08,19.87-21.91,18.98-3.71-.3-7.68-1.58-10.86-3.5-10.34-6.26-10.27-20.11-.01-26.52,5.96-3.72,12.48-4.61,19.3-2.54.97.3,1.93.64,3.46,1.14ZM40.88,50.3c19.37-5.85,38.12-11.5,56.84-17.22.67-.21,1.57-1.13,1.59-1.76.15-3.92.07-7.86.07-12.29-5.05,1.52-9.56,2.89-14.08,4.25-13.78,4.13-27.56,8.25-41.33,12.42-1.39.42-3.22.4-3.13,2.79.14,3.73.04,7.47.04,11.81ZM88.12,91.64c2.87-.78,5.18-1.05,7.15-2.02,4.57-2.25,5.17-6.51,1.66-9.89-3.62-3.47-12.48-3.47-16.11.01-3.03,2.9-3.34,5.84-.13,8.41,2.15,1.72,5.11,2.44,7.43,3.48ZM20.64,104.69c5.81,0,10.64-3.26,10.47-7.07-.17-3.78-4.77-6.75-10.45-6.75-5.84,0-10.61,3.23-10.45,7.07.16,3.79,4.74,6.75,10.43,6.75Z"/>
</svg>