<?xml version="1.0" encoding="UTF-8"?>
<svg id="Layer_1" data-name="Layer 1" xmlns="http://www.w3.org/2000/svg" viewBox="0 0 128.25 115.57">
  <defs>
    <style>
      .cls-1 {
        fill: #f3eec8;
        stroke-width: 0px;
      }
    </style>
  </defs>
  <path class="cls-1" d="M105.38,62.67c-.11,26.65-20.58,51.59-51.57,51.65-32.03.06-51.83-26.11-51.81-51.72.02-25.63,19.86-51.76,51.88-51.65,31.06.11,51.43,25.13,51.5,51.72ZM82.66,93c10.6-8.62,17.44-26.61,10.89-44.92-6.37-17.83-24.08-29.23-43.56-27.61-20.84,1.73-34.37,17.41-37.8,33.15-3.52,16.18,3.48,32.86,12.58,39.14,0-1.27,0-2.32,0-3.37,0-6.06,0-12.12,0-18.17,0-.97-.03-1.96.14-2.91.4-2.29,1.99-3.62,4.24-3.7,2.31-.08,3.97,1.06,4.53,3.34.28,1.13.28,2.36.28,3.54.02,8.76.03,17.52,0,26.29,0,1.47.06,2.65,1.76,3.36,11.84,4.96,23.65,5.28,35.56.21,1.85-.79,2.21-1.99,2.2-3.78-.06-8.65-.03-17.31-.02-25.96,0-.97-.04-1.96.08-2.92.32-2.52,1.88-3.97,4.24-4.07,2.42-.1,4.13,1.15,4.66,3.59.23,1.04.2,2.15.21,3.22.02,7.02,0,14.04,0,21.57Z"/>
  <path class="cls-1" d="M44.32,78.74c0-1.29-.11-2.6.02-3.88.58-5.6,4.3-8.36,9.15-8.8,4.33-.39,8.68,3.13,9.34,7.78.46,3.27.47,6.7.01,9.97-.66,4.77-5.23,8.24-9.61,7.88-4.96-.4-8.53-4-8.93-9.07-.1-1.29-.02-2.59-.02-3.88,0,0,.01,0,.02,0Z"/>
  <path class="cls-1" d="M34.4,47.35c3.45.2,7.03,1.09,9.74,3.83.96.96,1.78,2.6,1.73,3.9-.1,2.59-3.28,4.43-6.12,2.39-4.28-3.08-6.8-3-11.18-.12-2.18,1.43-4.13,1.3-5.45-.39-1.37-1.75-1.07-4.08.86-5.77,2.88-2.53,6.34-3.62,10.42-3.83Z"/>
  <path class="cls-1" d="M72.13,47.29c4.58.29,7.76,1.15,10.44,3.37.65.54,1.3,1.15,1.76,1.86,1.03,1.59.78,3.42-.5,4.73-1.41,1.43-3.18,1.67-4.95.26-3.96-3.16-7.74-3.11-11.68.03-1.69,1.34-3.64,1.06-4.93-.35-1.27-1.38-1.48-3.54-.17-5.03.97-1.11,2.19-2.18,3.52-2.74,2.44-1.03,5.05-1.66,6.52-2.12Z"/>
</svg>