<?xml version="1.0" encoding="UTF-8"?>
<svg id="Layer_1" data-name="Layer 1" xmlns="http://www.w3.org/2000/svg" viewBox="0 0 128.25 115.57">
  <defs>
    <style>
      .cls-1 {
        fill: #f3eec8;
        stroke-width: 0px;
      }
    </style>
  </defs>
  <path class="cls-1" d="M101.82,114.57c-6.17-2.91-10.67-7.36-13.72-13.31-26.63,22.53-59.89,13.07-75.06-6.35C-3.15,74.21-1.4,44.36,17.45,25.94c18.92-18.48,48.4-19.67,68.89-2.7,21.28,17.62,25.25,49.81,6.57,73.03.81,3.61,2.85,6.57,5.68,9.01,1.22,1.05,2.6,1.92,3.92,2.84,3.36,2.33,3.2,4.47-.7,6.45ZM85.51,72.47c-.68.47-1.29.85-1.85,1.28-9.8,7.66-22.38,6.64-30.83-2.52-5.86-6.35-7.38-16.44-3.48-24.47,4.09-8.42,11.78-13.08,20.78-12.87,12.22.28,21.52,10,21.83,22.4.13,5.28.02,10.56.03,15.84,0,1.99,0,3.97,0,6.51,8.87-13.01,2.13-38.49-12.44-48.41-1.53-.18-3.09-.39-4.38-1.09-5.57-3.06-8.58-2.83-13.54,1.22-1.55,1.26-3.19,2.41-4.61,3.48-3.93-2.07-4.26-3.84-1.46-6.23,2.25-1.92,4.61-3.71,7.01-5.62-15.53-4.58-38.15,2.54-47.62,23.25-9.1,19.9-1.6,43.18,17.3,54.19,17.76,10.35,42.43,5.85,53.75-9.93,0-5.24,0-10.62-.02-16.01,0-.27-.24-.55-.46-1.02ZM69.37,72.63c9.18.04,16.57-7.11,16.66-16.13.1-8.96-7.32-16.38-16.4-16.39-9.14-.01-16.46,7.24-16.45,16.29.02,8.92,7.26,16.18,16.19,16.23Z"/>
  <path class="cls-1" d="M59.72,98.7c-1.01-.91-1.92-1.41-2.37-2.18-3.74-6.4-9.84-9-16.65-10.43-2.08-.44-4.24-.48-6.37-.72-1.94-.22-3.28-1.12-3.21-3.27.06-1.99,1.42-3.07,3.17-2.93,10.52.84,20.44,3.13,26.93,12.6.77,1.12,1.23,2.44,2.03,4.08-1.22.99-2.3,1.86-3.54,2.86Z"/>
  <path class="cls-1" d="M36.98,49.84c.03,3.55-2.82,6.48-6.25,6.42-3.25-.06-6.06-2.97-6.09-6.3-.03-3.45,2.95-6.5,6.3-6.42,3.33.08,6.01,2.88,6.05,6.31Z"/>
  <path class="cls-1" d="M72.56,56.42c-.03,3.43-2.72,6.23-6.04,6.31-3.35.08-6.33-2.97-6.3-6.42.03-3.33,2.85-6.24,6.09-6.3,3.43-.06,6.28,2.86,6.25,6.42Z"/>
</svg>