<?xml version="1.0" encoding="UTF-8"?>
<svg id="Layer_1" data-name="Layer 1" xmlns="http://www.w3.org/2000/svg" viewBox="0 0 999.31 179.96">
  <defs>
    <style>
      .cls-1 {
        fill: #fff;
        stroke-width: 0px;
      }
    </style>
  </defs>
  <g>
    <path class="cls-1" d="M117.96,16.41h0L65.15.24c-1.91-.58-3.97-.07-5.38,1.34L1.58,59.77c-1.02,1.02-1.58,2.37-1.58,3.81s.56,2.79,1.58,3.81l9.19,9.19c1.03,1.03,2.38,1.54,3.87,1.58,1.46-.02,2.82-.61,3.83-1.67l50.26-52.84c.08-.08.2-.11.3-.08l.75.25c.15.05.23.21.19.36l-25.12,82.48c-.57,1.88-.08,3.92,1.29,5.33l12.36,12.69c1.35,1.38,3.27,1.93,5.14,1.47,1.87-.46,3.32-1.84,3.87-3.69l27.12-90.72c.02-.08.07-.14.14-.17.07-.04.15-.04.23-.02.12.04.19.15.2.27l.65,127.65c0,1.43.57,2.77,1.58,3.78l15.15,15.15c1.03,1.03,2.4,1.58,3.8,1.58.69,0,1.4-.14,2.07-.41,2.02-.84,3.32-2.79,3.32-4.97V21.56c0-2.38-1.53-4.45-3.81-5.15Z"/>
    <path class="cls-1" d="M256.94,59.77L198.75,1.58c-1.41-1.41-3.47-1.93-5.38-1.34l-52.34,16.03c-2.28.7-3.81,2.77-3.81,5.15v152.69c0,2.19,1.31,4.14,3.32,4.97.67.28,1.37.41,2.07.41,1.4,0,2.77-.55,3.8-1.58l110.53-110.53c1.02-1.02,1.58-2.37,1.58-3.81s-.56-2.79-1.58-3.81ZM212.32,50.75c-.07.18-.2.18-.27.18h-50.74c-.16,0-.29-.13-.29-.29v-16.93c0-.13.08-.24.2-.28l25.8-8.22s.06-.01.09-.01c.08,0,.15.03.2.09l24.94,25.16s.14.14.06.32ZM161.02,75.97c0-.16.13-.29.29-.29h50.72c.07,0,.19,0,.27.18.07.18-.01.27-.06.32l-50.72,50.96s-.13.14-.32.06c-.18-.07-.18-.2-.18-.27v-50.96Z"/>
  </g>
  <g>
    <path class="cls-1" d="M291.06,37.01h99.71v16.2h-81.32v32.41h80.08v16.2h-80.08v32.41h81.32v16.2h-99.71V37.01Z"/>
    <path class="cls-1" d="M410.09,37.01h12.46l45.18,45.18,45.49-45.18h12.15v113.42h-18.07v-83.5l-39.57,38.01-39.57-38.01v83.5h-18.07V37.01Z"/>
    <path class="cls-1" d="M546.57,37.01h99.71v16.2h-81.32v32.41h80.08v16.2h-80.08v32.41h81.32v16.2h-99.71V37.01Z"/>
    <path class="cls-1" d="M665.6,37.01h66.99c19.32,0,32.4,14.64,32.4,32.41,0,9.35-4.36,18.07-10.91,23.99,6.85,5.92,11.53,14.64,11.53,24.62,0,17.76-12.77,32.4-32.4,32.4h-67.61V37.01ZM730.72,85.62c9.66,0,16.2-6.54,16.2-16.2s-6.54-16.2-16.2-16.2h-46.74v32.41h46.74ZM731.65,134.22c9.66,0,16.2-6.54,16.2-16.2s-6.54-16.2-16.2-16.2h-47.67v32.41h47.67Z"/>
    <path class="cls-1" d="M783.38,37.01h99.71v16.2h-81.32v32.41h80.08v16.2h-80.08v32.41h81.32v16.2h-99.71V37.01Z"/>
    <path class="cls-1" d="M900.23,134.22h64.81c9.66,0,16.2-6.54,16.2-16.2s-6.54-16.2-16.2-16.2h-34.27c-19.32,0-32.41-13.71-32.41-32.4,0-17.14,13.09-32.41,32.41-32.41h58.89v16.2h-57.02c-9.66,0-16.2,6.54-16.2,16.2s6.54,16.2,16.2,16.2h34.27c19.32,0,32.41,13.71,32.41,32.41,0,16.83-13.09,32.4-32.41,32.4h-66.68v-16.2Z"/>
  </g>
</svg>