<?xml version="1.0" encoding="UTF-8"?>
<svg id="Layer_1" data-name="Layer 1" xmlns="http://www.w3.org/2000/svg" viewBox="0 0 1244.67 1244.67">
  <defs>
    <style>
      .cls-1 {
        fill: #e35e3f;
      }

      .cls-1, .cls-2, .cls-3, .cls-4, .cls-5 {
        stroke-width: 0px;
      }

      .cls-6 {
        stroke: #ffba5f;
        stroke-miterlimit: 10;
        stroke-width: 20px;
      }

      .cls-6, .cls-7, .cls-3 {
        fill: none;
      }

      .cls-7 {
        stroke: #fff;
        stroke-linecap: round;
        stroke-linejoin: round;
        stroke-width: 10px;
      }

      .cls-4 {
        fill: #ffba5f;
      }

      .cls-5 {
        fill: #f3eec8;
      }
    </style>
  </defs>
  <circle class="cls-2" cx="622.33" cy="622.33" r="622.33"/>
  <circle class="cls-5" cx="381.21" cy="883.64" r="50"/>
  <path class="cls-5" d="M381.21,786.64c-83.33,0-167,80.33-167,97s83.67,97,167,97,167-80.33,167-97-83.67-97-167-97ZM381.21,959.09c-41.67,0-75.44-33.78-75.44-75.44s33.78-75.44,75.44-75.44,75.44,33.78,75.44,75.44-33.78,75.44-75.44,75.44Z"/>
  <g>
    <path class="cls-4" d="M952.9,859.2c0-22.06-9.15-42.2-24.24-57.58v26.27c0,15.41-12.25,27.95-27.3,27.95-7.8,0-14.85-3.37-19.83-8.76v20.59c0,14.99-11.91,27.18-26.55,27.18s-26.55-12.19-26.55-27.18v-3.06c-4.9,4.11-11.16,6.58-17.98,6.58-15.67,0-28.41-13.06-28.41-29.1v-41.06c-15.44,15.45-24.82,35.83-24.82,58.17,0,13.62,3.49,26.51,9.71,38-5.66,11.21-6.35,27-.71,38.92,5.32,11.25,15.4,16.56,26,16.86h0s6.12,1.22,7.29,4.21c1.17,2.99.91,6.24.91,6.24v30.3s2.99,8.19,11.31,8.19h87c8.32,0,11.31-8.19,11.31-8.19v-30.3s-.26-3.25.91-6.24,7.29-4.21,7.29-4.21h0c10.6-.3,20.68-5.61,26-16.86,5.7-12.04,4.94-28.02-.88-39.25,6.11-11.41,9.53-24.18,9.53-37.67Z"/>
    <path class="cls-4" d="M912.67,788.55v-23.38h-114.62v23c16.05-10.3,35.74-16.37,57.02-16.37s41.44,6.22,57.6,16.75Z"/>
    <path class="cls-4" d="M810.46,855.2c6.84,0,12.41-5.88,12.41-13.1v-5.31c0-6,4.84-10.88,10.78-10.88s10.78,4.88,10.78,10.88v30.89c0,6.17,4.73,11.18,10.55,11.18s10.55-5.02,10.55-11.18v-46.36c0-6.84,5.5-12.41,12.27-12.41s12.27,5.57,12.27,12.41v6.59c0,6.59,5.07,11.95,11.3,11.95s11.3-5.36,11.3-11.95v-39.34c-16.16-10.53-36.07-16.75-57.6-16.75s-40.96,6.07-57.02,16.37v53.92c0,7.23,5.57,13.1,12.41,13.1Z"/>
  </g>
  <path class="cls-4" d="M867.45,736.78c0-6.52-12.39-23.43-12.39-23.43,0-1.21-12.39,16.91-12.39,23.43s5.55,11.81,12.39,11.81,12.39-5.29,12.39-11.81Z"/>
  <circle class="cls-4" cx="319.41" cy="335.88" r="60.85"/>
  <path class="cls-4" d="M476.86,287.28c-8.71,0-16.72,3.02-23.04,8.06-6.32-5.04-14.32-8.06-23.04-8.06-20.43,0-37,16.57-37,37,0,30.81,53.72,64.74,60.04,59.7,6.32,5.04,60.04-28.44,60.04-59.7,0-20.43-16.57-37-37-37Z"/>
  <path class="cls-6" d="M401.08,463.01l23.33-23.7,4.19-3.81c9.35-7.69,21.32-12.31,34.37-12.31,29.88,0,54.11,24.23,54.11,54.11s-24.23,54.11-54.11,54.11c-12.22,0-23.49-4.05-32.54-10.88l-5.57-4.83-77.73-78.77-7.62-5.69c-8.26-5.11-17.99-8.05-28.42-8.05-29.88,0-54.11,24.23-54.11,54.11s24.23,54.11,54.11,54.11c10.88,0,21.02-3.21,29.5-8.74l9.19-7.55,23.53-23.91"/>
  <g>
    <path class="cls-3" d="M771.3,518.15c.79-1.1,1.8-2.05,3.02-2.77-1.27.75-2.27,1.71-3.02,2.77Z"/>
    <path class="cls-1" d="M773.96,474.45v-27.56c0-4.34,2.53-8.19,6.61-10.06,4.45-2.04,9.86-1.32,13.45,1.79.38.32.75.66,1.12,1.02-3.64-20.66-5-36.43,6.47-41.31,7.41-3.15,16.02,1.44,20.7,4.63.46-8.38,2.5-17.49,8.47-26.35,13.13-19.48,25.04-27.62,35.39-24.2,11.75,3.87,11.42,19.59,11.06,36.23-.06,2.91-.15,6.8-.02,8.41.4,1.05.84,2.38,1.43,4.15,2.16,6.52,3.98,11.23,5.5,14.62,0-.4,0-.77,0-1.09.01-2.66.02-5.16.28-7.3,1.32-11.04,10.2-11.36,11.2-11.36,2.06,0,8.35,0,17.12,12.52,2.88,4.11,7.78,12.23,8.21,20.36.12,2.28.18,5.38.25,8.98.05,2.32.11,5.5.21,8.81.61-1.06,1.27-2.07,2.02-3,2.84-3.52,6.89-5.46,11.11-5.35,3.19.09,7.84,1.39,11.88,7.05,2.36,3.31,5.21,7.82,7.18,13.6,27.71-36.72,50.38-81.48,50.38-128.38,0-42.55-34.49-77.04-77.04-77.04-26.52,0-54.55,13.64-71.9,34.21-17.35-20.58-45.38-34.21-71.91-34.21-42.55,0-77.04,34.49-77.04,77.04,0,54.67,30.8,106.43,64.48,145.94.97-.87,2.08-1.6,3.33-2.12,0,0,.01,0,.02,0Z"/>
    <polygon class="cls-1" points="855.46 550.09 855.47 550.09 855.46 550.09 855.46 550.09"/>
    <path class="cls-1" d="M855.41,550.08s.05,0,.05,0h0s-.03,0-.05,0Z"/>
    <path class="cls-1" d="M935.98,472.48c-.1-2.8-.64-5.26-1.44-7.46-1.2,2.13-2.62,4.29-4.38,6.17-5.21,5.61-12.19,7.43-19.14,5-7.85-2.75-8.57-12.13-9.1-18.99-.45-5.88-.59-13.1-.71-18.9-.03-1.28-.05-2.5-.08-3.62-4.01,8.01-11.23,8.73-13.65,8.73-15.9,0-23.37-22.49-27.83-35.93-.43-1.3-.97-2.92-1.16-3.37-1.48-3.3-1.46-7.04-1.27-15.92.07-3.16.18-8.31,0-12.64-2.82,2.82-6.36,7-9.87,12.22-6.39,9.47-5.43,20.06-4.5,30.3.08.84.15,1.66.22,2.48.42,4.93-2.51,9.46-7.31,11.28-5.2,1.97-11.03.45-14.26-3.71-1.24-1.35-6.28-5.47-8.82-7.44.63,7.5,2.63,18.32,3.78,24.49,2.96,15.96,3.96,21.33.49,26.17-1.68,2.35-4.17,3.87-7.01,4.29-6.38.93-11.53-2.21-16.01-6.63v14.25c0,4.3-2.5,8.14-6.53,10.02-.25.12-.51.23-.77.33,0,.23,0,.48,0,.72,21.28,22.23,41.95,39.05,55.11,48.14l13.69,7.61s0,0,0,0c.03-.02,5.02-2.79,12.89-7.61,15.66-10.82,41.98-32.59,67.28-61.41.28-3.35.42-6.32.34-8.59Z"/>
    <path class="cls-1" d="M855.47,550.09s0,0,0,0c.02,0,.01,0,0,0Z"/>
    <path class="cls-1" d="M855.41,550.08c-.08,0-.24-.03-.35-.05-.1.02.21.04.35.05Z"/>
  </g>
  <path class="cls-3" d="M1004.01,330.65c0-42.55-34.49-77.04-77.04-77.04-26.52,0-54.55,13.64-71.9,34.21-17.35-20.58-45.38-34.21-71.91-34.21-42.55,0-77.04,34.49-77.04,77.04,0,97.63,98.22,185.98,135.64,211.83,3.36,4.87,7.6,7.61,12.9,7.61.11,0,.26-.03.4-.05.14.03.29.05.4.05,5.3,0,9.54-2.74,12.9-7.61,37.43-25.85,135.64-114.2,135.64-211.83Z"/>
  <line class="cls-7" x1="622.33" y1="1077.33" x2="622.33" y2="227.33"/>
  <line class="cls-7" x1="197.33" y1="628.64" x2="1047.33" y2="628.64"/>
</svg>